Coordinates
version=1
nRows=21
nColumns=22
inDegrees=yes

Units are S.I. units (second, meters, Newtons, ...)
If the header above contains a line with 'inDegrees', this indicates whether rotational values are in degrees (yes) or radians (no).

endheader
time	pelvis_tilt	pelvis_list	pelvis_rotation	pelvis_tx	pelvis_ty	pelvis_tz	hip_flexion_r	hip_adduction_r	hip_rotation_r	knee_angle_r	ankle_angle_r	subtalar_angle_r	hip_flexion_l	hip_adduction_l	hip_rotation_l	knee_angle_l	ankle_angle_l	subtalar_angle_l	lumbar_extension	lumbar_bending	lumbar_rotation
      2.63000000	     -0.91289942	      7.26405619	    -45.38176359	      0.03734470	      0.97685819	      0.20171121	     37.06755395	     -8.02164649	    -11.22234523	    -50.16680891	     13.05074884	     -9.51024001	     13.37537604	      5.11744879	     -4.68243848	    -21.49322595	     20.91572695	      1.01606760	     -4.69725507	     -4.22695352	     -0.79852242
      2.64000000	     -0.79917352	      7.26351920	    -45.83691557	      0.04236574	      0.97646373	      0.20697154	     37.28671661	     -8.03277908	    -11.97064182	    -47.93382851	     13.15301805	     -9.50966747	     12.71933444	      5.16512987	     -5.08300655	    -21.31442805	     21.31857941	      0.87681020	     -4.75539336	     -4.25194127	     -0.78637857
      2.65000000	     -0.68638004	      7.25323741	    -46.29167395	      0.04732043	      0.97600091	      0.21233546	     37.46085043	     -8.00494148	    -12.74635067	    -45.67251632	     13.16589816	     -9.43254766	     12.05905421	      5.21168245	     -5.45232584	    -21.14336610	     21.71665682	      0.74034720	     -4.81876801	     -4.26911570	     -0.74724224
      2.66000000	     -0.61403994	      7.24538555	    -46.73874201	      0.05215435	      0.97539051	      0.21781294	     37.62943689	     -7.90667543	    -13.53039456	    -43.39292484	     13.10653866	     -9.24589041	     11.45719821	      5.22166635	     -5.83864211	    -21.02378246	     22.14976359	      0.62001160	     -4.84756706	     -4.26117163	     -0.71818328
      2.67000000	     -0.56335503	      7.24160625	    -47.17952230	      0.05690835	      0.97466227	      0.22339376	     37.78224401	     -7.75586602	    -14.30446897	    -41.10896273	     12.97654632	     -8.95475475	     10.88447109	      5.21745460	     -6.21607292	    -20.92703245	     22.60141627	      0.51568414	     -4.85441993	     -4.23834837	     -0.68695100
      2.68000000	     -0.52185513	      7.24746529	    -47.61853648	      0.06161290	      0.97382586	      0.22908669	     37.91922766	     -7.57111623	    -15.06803079	    -38.83932345	     12.79553510	     -8.58195012	     10.32806861	      5.21247573	     -6.60139735	    -20.84111579	     23.05857322	      0.42867950	     -4.84035129	     -4.21409313	     -0.64418969
      2.69000000	     -0.50660130	      7.29062869	    -48.06715682	      0.06624816	      0.97282004	      0.23489677	     38.08498560	     -7.34854409	    -15.78134105	    -36.60205971	     12.55067050	     -8.23050001	      9.82875201	      5.20567366	     -7.02848851	    -20.77829112	     23.52435782	      0.35351796	     -4.76709447	     -4.19873455	     -0.59654046
      2.70000000	     -0.41183333	      7.27868495	    -48.53490574	      0.07093837	      0.97190918	      0.24088701	     38.12006063	     -7.13418424	    -16.50161838	    -34.41430756	     12.38610668	     -7.70229987	      9.17680429	      5.23527374	     -7.42204039	    -20.63636133	     23.96941714	      0.30832920	     -4.79031432	     -4.20384389	     -0.50166036
      2.71000000	     -0.32791875	      7.30834380	    -49.01309492	      0.07560392	      0.97084593	      0.24698671	     38.18272864	     -6.91042395	    -17.16596094	    -32.29011103	     12.21184050	     -7.25326046	      8.56803764	      5.28292419	     -7.85859854	    -20.50609326	     24.41286748	      0.27954252	     -4.75908280	     -4.22807045	     -0.41589770
      2.72000000	     -0.24619355	      7.36451518	    -49.49246241	      0.08027659	      0.96966278	      0.25318350	     38.25320908	     -6.69174208	    -17.80477181	    -30.24239519	     12.05711486	     -6.89999845	      7.98603681	      5.34695504	     -8.32508219	    -20.39140107	     24.85124506	      0.25807644	     -4.69354057	     -4.26442933	     -0.34461516
      2.73000000	     -0.10647913	      7.38947037	    -49.97001664	      0.08505217	      0.96852334	      0.25950755	     38.24077929	     -6.51455391	    -18.47830293	    -28.29695992	     12.01614414	     -6.53854962	      7.29892415	      5.45582881	     -8.73472693	    -20.21770071	     25.26091300	      0.29193280	     -4.68575086	     -4.31809863	     -0.25371429
      2.74000000	     -0.01345593	      7.46403272	    -50.42354156	      0.08982274	      0.96718573	      0.26588600	     38.28983905	     -6.34151272	    -19.14872775	    -26.45530564	     11.99578438	     -6.34126310	      6.72297803	      5.55386690	     -9.18141811	    -20.12108298	     25.68154927	      0.30873183	     -4.59505500	     -4.36237995	     -0.20684221
      2.75000000	      0.09123589	      7.53450610	    -50.84936978	      0.09468769	      0.96581444	      0.27233762	     38.31324648	     -6.20429198	    -19.85695291	    -24.73974019	     12.06248443	     -6.22460893	      6.13365582	      5.67130339	     -9.57396833	    -20.03181132	     26.08502800	      0.36053037	     -4.50860954	     -4.40014178	     -0.17665621
      2.76000000	      0.19346389	      7.60709247	    -51.23775306	      0.09959638	      0.96439830	      0.27885811	     38.32943588	     -6.09341607	    -20.58772463	    -23.16501013	     12.17739538	     -6.20085065	      5.56212025	      5.79156437	     -9.92913232	    -19.97742427	     26.46145692	      0.45050454	     -4.41897709	     -4.43214853	     -0.18719218
      2.77000000	      0.26354463	      7.70582858	    -51.58228827	      0.10455026	      0.96287894	      0.28543832	     38.37911071	     -5.99618393	    -21.29227582	    -21.74599762	     12.33664194	     -6.25384412	      5.06443193	      5.90236026	    -10.24395618	    -19.99114930	     26.83083778	      0.54561422	     -4.27992362	     -4.44617364	     -0.23355873
      2.78000000	      0.33465076	      7.77095920	    -51.88632188	      0.10954314	      0.96141203	      0.29212627	     38.38041497	     -5.89646159	    -21.94677655	    -20.48494612	     12.48377682	     -6.39390098	      4.54423711	      5.99221765	    -10.50111579	    -20.02839615	     27.15614917	      0.72512428	     -4.17798048	     -4.43458593	     -0.31698092
      2.79000000	      0.36410200	      7.85195888	    -52.12887975	      0.11458480	      0.95986382	      0.29889843	     38.41039589	     -5.79543371	    -22.46566899	    -19.41802190	     12.66183266	     -6.51377818	      4.11152848	      6.04411519	    -10.73768721	    -20.17148471	     27.48957924	      0.86172513	     -4.03100257	     -4.39123993	     -0.47061283
      2.80000000	      0.38464633	      7.89255184	    -52.32077245	      0.11971429	      0.95838346	      0.30582614	     38.38901512	     -5.68091552	    -22.82959973	    -18.55159568	     12.84815640	     -6.64650137	      3.65493523	      6.06025705	    -10.90294078	    -20.34638832	     27.79233892	      1.04839662	     -3.91254943	     -4.30603449	     -0.65796091
      2.81000000	      0.39713098	      7.89142568	    -52.45984768	      0.12493546	      0.95698298	      0.31293747	     38.31529456	     -5.55542983	    -22.99905663	    -17.90816995	     13.00639353	     -6.76966207	      3.17650418	      6.03429973	    -11.00831657	    -20.56415523	     28.05719751	      1.27993524	     -3.81727755	     -4.18356302	     -0.89570346
      2.82000000	      0.39543201	      7.85471857	    -52.54671720	      0.13023121	      0.95565137	      0.32020573	     38.20161649	     -5.42086072	    -22.97500212	    -17.49897552	     13.12300350	     -6.87900745	      2.69390297	      5.96452432	    -11.05048474	    -20.83769635	     28.28585973	      1.54968092	     -3.74298717	     -4.01936653	     -1.17338350
      2.83000000	      0.36575670	      7.79912589	    -52.58705314	      0.13558666	      0.95436238	      0.32764381	     38.07621220	     -5.28014808	    -22.80043089	    -17.33585146	     13.16114398	     -6.98699372	      2.23120467	      5.84687848	    -11.03829858	    -21.16726298	     28.48128152	      1.83559177	     -3.65892872	     -3.81741233	     -1.48342278
